<svg width="20" height="16" viewBox="0 0 20 16" fill="none" xmlns="http://www.w3.org/2000/svg">
    <path
        d="M16.6935 7.80339L3.98576 2.37397C3.87886 2.3283 3.75622 2.3086 3.63425 2.31753C3.51228 2.32645 3.39679 2.36356 3.30321 2.4239C3.20962 2.48425 3.14241 2.56494 3.11055 2.65521C3.07869 2.74548 3.0837 2.84102 3.12491 2.92905L5.52187 8.04959C5.56862 8.14946 5.56862 8.2586 5.52187 8.35847L3.12491 13.479C3.0837 13.567 3.07869 13.6626 3.11055 13.7528C3.14241 13.8431 3.20962 13.9238 3.30321 13.9841C3.39679 14.0445 3.51229 14.0816 3.63426 14.0905C3.75622 14.0994 3.87886 14.0798 3.98577 14.0341L16.6935 8.60467C16.7869 8.56478 16.8646 8.50664 16.9187 8.43622C16.9728 8.3658 17.0013 8.28565 17.0013 8.20403C17.0013 8.1224 16.9728 8.04225 16.9187 7.97183C16.8646 7.90141 16.7869 7.84327 16.6935 7.80339V7.80339Z"
        stroke="white" stroke-linecap="round" stroke-linejoin="round" />
    <path d="M5.59473 8.2041H10.4096" stroke="white" stroke-linecap="round" stroke-linejoin="round" />
</svg>