<svg data-name="Layer 1" xmlns="http://www.w3.org/2000/svg" viewBox="0 0 128 128">
    <path
        d="M109.5 0H25.833a5.757 5.757 0 0 0-5.75 5.75v2.02H16.5a3.754 3.754 0 0 0-3.75 3.75v4.5a3.754 3.754 0 0 0 3.75 3.75h3.583v4.75H16.5a3.754 3.754 0 0 0-3.75 3.75v4.5a3.754 3.754 0 0 0 3.75 3.75h3.583v4.75H16.5a3.754 3.754 0 0 0-3.75 3.75v4.5a3.754 3.754 0 0 0 3.75 3.75h3.583v4.75H16.5a3.754 3.754 0 0 0-3.75 3.75v4.5a3.754 3.754 0 0 0 3.75 3.75h3.583v4.75H16.5a3.754 3.754 0 0 0-3.75 3.75v4.5a3.754 3.754 0 0 0 3.75 3.75h3.583v4.75H16.5a3.754 3.754 0 0 0-3.75 3.75v4.5a3.754 3.754 0 0 0 3.75 3.75h3.583v4.75H16.5a3.754 3.754 0 0 0-3.75 3.75v4.5a3.754 3.754 0 0 0 3.75 3.75h3.583v1.98a5.757 5.757 0 0 0 5.75 5.75H109.5a5.757 5.757 0 0 0 5.75-5.75V5.75A5.757 5.757 0 0 0 109.5 0zM16.25 16.02v-4.5a.25.25 0 0 1 .25-.25h10.667a.25.25 0 0 1 .25.25v4.5a.25.25 0 0 1-.25.25H16.5a.25.25 0 0 1-.25-.25zm0 16.75v-4.5a.25.25 0 0 1 .25-.25h10.667a.25.25 0 0 1 .25.25v4.5a.25.25 0 0 1-.25.25H16.5a.25.25 0 0 1-.25-.25zm0 16.75v-4.5a.25.25 0 0 1 .25-.25h10.667a.25.25 0 0 1 .25.25v4.5a.25.25 0 0 1-.25.25H16.5a.25.25 0 0 1-.25-.25zm0 16.75v-4.5a.25.25 0 0 1 .25-.25h10.667a.25.25 0 0 1 .25.25v4.5a.25.25 0 0 1-.25.25H16.5a.25.25 0 0 1-.25-.25zm0 16.75v-4.5a.25.25 0 0 1 .25-.25h10.667a.25.25 0 0 1 .25.25v4.5a.25.25 0 0 1-.25.25H16.5a.25.25 0 0 1-.25-.25zm0 16.75v-4.5a.25.25 0 0 1 .25-.25h10.667a.25.25 0 0 1 .25.25v4.5a.25.25 0 0 1-.25.25H16.5a.25.25 0 0 1-.25-.25zm0 16.75v-4.5a.25.25 0 0 1 .25-.25h10.667a.25.25 0 0 1 .25.25v4.5a.25.25 0 0 1-.25.25H16.5a.25.25 0 0 1-.25-.25zm9.583 7.98a2.252 2.252 0 0 1-2.25-2.25v-1.98h3.583a3.754 3.754 0 0 0 3.75-3.75v-4.5a3.754 3.754 0 0 0-3.75-3.75h-3.583v-4.75h3.583a3.754 3.754 0 0 0 3.75-3.75v-4.5a3.754 3.754 0 0 0-3.75-3.75h-3.583v-4.75h3.583a3.754 3.754 0 0 0 3.75-3.75v-4.5a3.754 3.754 0 0 0-3.75-3.75h-3.583v-4.75h3.583a3.754 3.754 0 0 0 3.75-3.75v-4.5a3.754 3.754 0 0 0-3.75-3.75h-3.583v-4.75h3.583a3.754 3.754 0 0 0 3.75-3.75v-4.5a3.754 3.754 0 0 0-3.75-3.75h-3.583v-4.75h3.583a3.754 3.754 0 0 0 3.75-3.75v-4.5a3.754 3.754 0 0 0-3.75-3.75h-3.583v-4.75h3.583a3.754 3.754 0 0 0 3.75-3.75v-4.5a3.754 3.754 0 0 0-3.75-3.75h-3.583V5.75a2.252 2.252 0 0 1 2.25-2.25h16.334v121zm85.917-2.25a2.252 2.252 0 0 1-2.25 2.25H45.667V3.5H109.5a2.252 2.252 0 0 1 2.25 2.25z" />
    <path
        d="M73.752 58.62a16.768 16.768 0 0 0 23.688 0l2.886-2.886a5.75 5.75 0 0 0 0-8.131L95.818 43.1a5.756 5.756 0 0 0-8.131 0l-2.768 2.768-10.606-10.612 2.768-2.768a5.756 5.756 0 0 0 0-8.131l-4.508-4.508a5.756 5.756 0 0 0-8.132 0l-2.885 2.886a16.768 16.768 0 0 0 0 23.688zM64.03 25.209l2.885-2.885a2.253 2.253 0 0 1 3.183 0l4.508 4.508a2.253 2.253 0 0 1 0 3.182L70.6 34.019a1.749 1.749 0 0 0 0 2.475l13.082 13.081a1.749 1.749 0 0 0 2.475 0l4.005-4.005a2.253 2.253 0 0 1 3.182 0l4.508 4.508a2.253 2.253 0 0 1 0 3.182l-2.886 2.886a13.266 13.266 0 0 1-18.739 0l-12.2-12.2a13.265 13.265 0 0 1 .003-18.737zM102.326 70.937H56.333a1.75 1.75 0 0 0-1.75 1.75v7a1.75 1.75 0 0 0 1.75 1.75h45.993a1.75 1.75 0 0 0 1.75-1.75v-7a1.75 1.75 0 0 0-1.75-1.75zm-1.75 7H58.083v-3.5h42.493zM102.326 86.6H56.333a1.75 1.75 0 0 0-1.75 1.75v7a1.75 1.75 0 0 0 1.75 1.75h45.993a1.75 1.75 0 0 0 1.75-1.75v-7a1.75 1.75 0 0 0-1.75-1.75zm-1.75 7H58.083v-3.5h42.493zM102.326 102.269H56.333a1.75 1.75 0 0 0-1.75 1.75v7a1.75 1.75 0 0 0 1.75 1.75h45.993a1.75 1.75 0 0 0 1.75-1.75v-7a1.75 1.75 0 0 0-1.75-1.75zm-1.75 7H58.083v-3.5h42.493z" />
</svg>