<svg width="326" height="155" viewBox="0 0 326 155" fill="none" xmlns="http://www.w3.org/2000/svg">
    <path
        d="M67.93 22.04H80.34V151.07H67.93V22.04ZM13.02 5.03999H112.47V16.6H13.02V5.03999ZM3.16 68.79H113.83V80.52H3.16V68.79ZM27.81 39.38H39.88V70.49C39.88 97.86 36.99 128.97 10.13 152.94C8.09 150.22 3.67 146.31 0.61 144.44C25.43 122.51 27.81 94.63 27.81 70.32V39.38ZM142.22 0.789996L153.1 6.39999C147.15 13.03 140.86 20 135.76 24.59L127.94 20C132.7 14.73 138.99 6.39999 142.22 0.789996ZM116.04 27.65L123.35 20.51C133.89 25.44 147.49 33.43 154.29 39.04L146.81 47.2C140.18 41.25 126.75 33.09 116.04 27.65ZM142.9 77.12L153.78 82.73C147.66 89.36 140.86 96.33 135.59 100.92L127.94 96.33C132.7 91.23 139.5 82.73 142.9 77.12ZM116.21 103.98L123.52 96.67C134.57 101.77 148.85 109.76 156.16 115.71L148.51 123.87C141.54 117.92 127.6 109.42 116.21 103.98ZM46.34 22.89L57.39 27.14C45.32 38.36 25.26 48.73 8.26 54.85C6.9 52.47 3.16 47.2 0.78 44.99C17.1 39.89 35.97 31.9 46.34 22.89ZM104.31 5.03999H116.21C117.91 34.11 124.54 60.8 145.62 62.33C148 62.67 149.36 57.74 150.04 48.9C152.42 51.45 155.48 54.34 158.03 55.7C155.99 69.64 151.4 75.08 143.07 73.72C113.32 70.15 107.03 39.04 104.31 5.03999ZM106.01 68.79H118.08C118.93 106.36 123.69 139.17 146.81 141.04C149.02 141.38 150.55 134.92 151.4 123.53C153.78 126.42 157.01 129.31 159.56 130.67C157.52 148.01 153.1 154.47 144.09 152.6C111.79 149.03 107.54 111.46 106.01 68.79ZM172.82 95.65C177.07 92.42 180.64 89.19 185.06 84.43C194.24 75.25 208.35 55.87 218.55 43.8C228.41 32.24 237.25 30.54 248.47 42.1C258.67 52.47 271.76 69.3 282.64 80.86C292.84 92.25 309.84 110.1 325.14 123.7L314.09 135.94C301.34 123.87 286.04 106.19 274.31 92.93C263.26 80.35 250.34 64.03 242.35 55.36C235.21 47.37 231.98 48.73 226.03 55.87C218.04 65.73 204.1 84.43 195.26 94.97C191.86 99.39 187.95 104.83 185.4 108.57L172.82 95.65ZM282.64 24.25C286.89 30.71 294.71 43.29 298.79 51.45L288.59 56.04C284.51 47.03 278.56 36.32 272.78 28.5L282.64 24.25ZM304.57 15.75C308.99 21.7 317.15 34.45 321.23 42.27L311.37 47.03C306.78 38.19 300.66 27.65 295.05 20.17L304.57 15.75Z"
        fill="url(#paint0_linear_35_135)" />
    <path
        d="M67.93 22.04H80.34V151.07H67.93V22.04ZM13.02 5.03999H112.47V16.6H13.02V5.03999ZM3.16 68.79H113.83V80.52H3.16V68.79ZM27.81 39.38H39.88V70.49C39.88 97.86 36.99 128.97 10.13 152.94C8.09 150.22 3.67 146.31 0.61 144.44C25.43 122.51 27.81 94.63 27.81 70.32V39.38ZM142.22 0.789996L153.1 6.39999C147.15 13.03 140.86 20 135.76 24.59L127.94 20C132.7 14.73 138.99 6.39999 142.22 0.789996ZM116.04 27.65L123.35 20.51C133.89 25.44 147.49 33.43 154.29 39.04L146.81 47.2C140.18 41.25 126.75 33.09 116.04 27.65ZM142.9 77.12L153.78 82.73C147.66 89.36 140.86 96.33 135.59 100.92L127.94 96.33C132.7 91.23 139.5 82.73 142.9 77.12ZM116.21 103.98L123.52 96.67C134.57 101.77 148.85 109.76 156.16 115.71L148.51 123.87C141.54 117.92 127.6 109.42 116.21 103.98ZM46.34 22.89L57.39 27.14C45.32 38.36 25.26 48.73 8.26 54.85C6.9 52.47 3.16 47.2 0.78 44.99C17.1 39.89 35.97 31.9 46.34 22.89ZM104.31 5.03999H116.21C117.91 34.11 124.54 60.8 145.62 62.33C148 62.67 149.36 57.74 150.04 48.9C152.42 51.45 155.48 54.34 158.03 55.7C155.99 69.64 151.4 75.08 143.07 73.72C113.32 70.15 107.03 39.04 104.31 5.03999ZM106.01 68.79H118.08C118.93 106.36 123.69 139.17 146.81 141.04C149.02 141.38 150.55 134.92 151.4 123.53C153.78 126.42 157.01 129.31 159.56 130.67C157.52 148.01 153.1 154.47 144.09 152.6C111.79 149.03 107.54 111.46 106.01 68.79ZM172.82 95.65C177.07 92.42 180.64 89.19 185.06 84.43C194.24 75.25 208.35 55.87 218.55 43.8C228.41 32.24 237.25 30.54 248.47 42.1C258.67 52.47 271.76 69.3 282.64 80.86C292.84 92.25 309.84 110.1 325.14 123.7L314.09 135.94C301.34 123.87 286.04 106.19 274.31 92.93C263.26 80.35 250.34 64.03 242.35 55.36C235.21 47.37 231.98 48.73 226.03 55.87C218.04 65.73 204.1 84.43 195.26 94.97C191.86 99.39 187.95 104.83 185.4 108.57L172.82 95.65ZM282.64 24.25C286.89 30.71 294.71 43.29 298.79 51.45L288.59 56.04C284.51 47.03 278.56 36.32 272.78 28.5L282.64 24.25ZM304.57 15.75C308.99 21.7 317.15 34.45 321.23 42.27L311.37 47.03C306.78 38.19 300.66 27.65 295.05 20.17L304.57 15.75Z"
        fill="white" fill-opacity="0.1" />
    <defs>
        <linearGradient id="paint0_linear_35_135" x1="172" y1="0.499999" x2="172" y2="150"
            gradientUnits="userSpaceOnUse">
            <stop stop-color="white" />
            <stop offset="1" stop-color="#7B7B7B" stop-opacity="0.81" />
        </linearGradient>
    </defs>
</svg>
    